<svg width="18" height="16" viewBox="0 0 18 16" fill="none" xmlns="http://www.w3.org/2000/svg">
<path fill-rule="evenodd" clip-rule="evenodd" d="M8.93367 0.769043L10.9838 6.40358C10.9988 6.44468 11.0281 6.4805 11.0674 6.50588C11.1068 6.53127 11.1542 6.5449 11.2028 6.54481L17.8696 6.53312L12.4675 10.0034C12.4281 10.0288 12.3987 10.0646 12.3837 10.1057C12.3687 10.1468 12.3687 10.191 12.3839 10.2321L14.4582 15.8607L9.06894 12.3706C9.02964 12.3452 8.98225 12.3314 8.9336 12.3314C8.88495 12.3314 8.83756 12.3452 8.79825 12.3706L3.41155 15.8605L5.48574 10.2321C5.50088 10.191 5.50094 10.1468 5.48592 10.1057C5.47089 10.0646 5.44156 10.0288 5.40214 10.0034L0 6.53312L6.66678 6.54481C6.71544 6.54489 6.76287 6.53124 6.80223 6.50585C6.84159 6.48045 6.87085 6.44462 6.88579 6.40351L8.93367 0.769043Z" fill="#F1C40F"/>
</svg>
