<svg width="12" height="12" viewBox="0 0 12 12" fill="none" xmlns="http://www.w3.org/2000/svg">
<path fill-rule="evenodd" clip-rule="evenodd" d="M5.8998 0L7.25373 4.48027C7.26361 4.51295 7.28294 4.54143 7.30893 4.56161C7.33492 4.58179 7.36624 4.59263 7.39837 4.59256L11.8011 4.58327L8.23354 7.34267C8.20751 7.36282 8.18813 7.39128 8.17821 7.42395C8.16829 7.45663 8.16833 7.49183 8.17833 7.52447L9.54817 12L5.98913 9.22491C5.96318 9.20467 5.93188 9.19376 5.89975 9.19376C5.86763 9.19376 5.83633 9.20467 5.81037 9.22491L2.25299 11.9998L3.62279 7.52447C3.63279 7.49183 3.63283 7.45663 3.6229 7.42395C3.61298 7.39128 3.59361 7.36282 3.56758 7.34267L0 4.58327L4.40275 4.59256C4.43488 4.59263 4.4662 4.58177 4.4922 4.56158C4.51819 4.54139 4.53751 4.5129 4.54738 4.48021L5.8998 0Z" fill="#F1C40F"/>
</svg>
